<?xml version="1.0"?>
<svg xmlns="http://www.w3.org/2000/svg" id="Layer_1" enable-background="new 0 0 512 512" height="512px" viewBox="0 0 512 512" width="512px" class=""><g><g><path d="m499.122 337.304c.032-27.511-.755-73.984-15.929-84.404-38.666-26.55-105.593-35.169-153.193-40.292-67.145-7.227-89.847-80.108-119.086-80.108s-14.124 88.023-87.058 88.023c-55.083 0-57.775-46.316-61.45-49.988-13.737-1.42-25.984 0-25.984 0s-32.087 61.422-21.345 166.769z" fill="#f74f68" data-original="#F74F68"/><g><path d="m483.192 252.9c-38.665-26.55-105.592-35.169-153.192-40.293-67.145-7.227-89.847-80.107-119.086-80.107-5.585 0-9.549 3.219-12.821 8.415 22.691 19.384 48 65.988 101.001 71.692 47.6 5.124 114.527 13.743 153.193 40.293 15.175 10.42 15.962 56.893 15.929 84.404h30.905c.033-27.511-.754-73.984-15.929-84.404z" fill="#e83a53" data-original="#E83A53"/></g><path d="m123.856 251.398c65.485 0 84.804-51.821 94.047-77.965 0 0 12.162-31.775.598-39.329-2.45-1.009-4.915-1.574-7.428-1.597-.112.001-.234.002-.351.003-28.974.394-14.095 88.014-86.865 88.014-55.083 0-57.775-46.316-61.45-49.988-13.737-1.42-25.984 0-25.984 0-.002 70.759 64.368 80.862 87.433 80.862z" fill="#ffd54f" data-original="#FFD54F"/><g><path d="m218.5 134.103c-2.45-1.009-4.915-1.574-7.428-1.597-.112.001-.234.002-.351.003-9.291.127-14.072 9.228-18.681 21.527-1.4 9.864-5.043 19.396-5.043 19.396-8.439 23.873-25.288 69.146-78.007 76.834 5.805.837 10.935 1.131 14.865 1.131 65.485 0 84.804-51.821 94.047-77.965 0 0 12.162-31.774.598-39.329z" fill="#ffc328" data-original="#FFC328"/></g><path d="m194.61 278.404h-181.392c-.741 17.702-.335 37.384 1.859 58.9h314.224s-10.608-10.055-26.202-22.075c-31.064-23.944-69.254-36.825-108.489-36.825z" fill="#546e7a" data-original="#546E7A"/><path d="m303.099 315.229c-31.064-23.944-69.254-36.825-108.489-36.825h-30.905c39.235 0 77.425 12.881 108.489 36.825 15.594 12.02 26.202 22.075 26.202 22.075h30.905s-10.608-10.055-26.202-22.075z" fill="#455a64" data-original="#455A64"/><path d="m495.98 282.65-65.6 3.832c-18.461 1.079-34.999 11.759-43.564 28.132l-11.869 22.69h124.176c.017-15.481-.224-36.967-3.143-54.654z" fill="#546e7a" data-original="#546E7A"/><path d="m495.98 282.65-30.63 1.789c2.652 17.332 2.884 37.899 2.867 52.865h30.905c.018-15.481-.223-36.967-3.142-54.654z" fill="#455a64" data-original="#455A64"/><g fill="#e4e4e4"><path d="m240.946 200.523-.004-.003c-6.865-5.073-8.314-14.752-3.234-21.612l18.376-24.819c5.072-6.851 14.736-8.297 21.592-3.231l.004.003c6.865 5.073 8.314 14.752 3.234 21.612l-18.376 24.819c-5.073 6.85-14.736 8.296-21.592 3.231z" data-original="#E4E4E4" class=""/><path d="m286.606 228.136-.007-.004c-7.394-4.264-9.926-13.717-5.656-21.107l15.449-26.732c4.266-7.381 13.705-9.91 21.089-5.651l.007.004c7.394 4.264 9.926 13.717 5.656 21.107l-15.449 26.732c-4.265 7.381-13.704 9.91-21.089 5.651z" data-original="#E4E4E4" class=""/><path d="m339.757 251.774-.012-.004c-8.099-2.689-12.482-11.436-9.789-19.534l9.743-29.288c2.691-8.091 11.43-12.47 19.522-9.783l.012.004c8.099 2.689 12.482 11.436 9.789 19.534l-9.743 29.288c-2.691 8.091-11.43 12.47-19.522 9.783z" data-original="#E4E4E4" class=""/></g><path d="m512 339.77v33.27c0 3.57-2.89 6.46-6.46 6.46h-499.08c-3.57 0-6.46-2.89-6.46-6.46v-33.27c0-3.57 2.89-6.46 6.46-6.46h499.08c3.57 0 6.46 2.89 6.46 6.46z" fill="#f3f3f3" data-original="#F3F3F3" class="active-path" style="fill:#F3F3F3"/><path d="m505.819 333.308h-30.905c3.414 0 6.181 3.026 6.181 6.76v32.673c0 3.733-2.767 6.76-6.181 6.76h30.905c3.414 0 6.181-3.026 6.181-6.76v-32.673c0-3.734-2.767-6.76-6.181-6.76z" fill="#e4e4e4" data-original="#E4E4E4" class=""/><g fill="#546e7a"><path d="m38.41 360.97v18.53h-15v-18.53c0-4.14 3.35-7.5 7.5-7.5 4.14 0 7.5 3.36 7.5 7.5z" data-original="#546E7A"/><path d="m94.68 360.97v18.53h-15v-18.53c0-4.14 3.36-7.5 7.5-7.5s7.5 3.36 7.5 7.5z" data-original="#546E7A"/><path d="m150.95 360.97v18.53h-15v-18.53c0-4.14 3.36-7.5 7.5-7.5s7.5 3.36 7.5 7.5z" data-original="#546E7A"/><path d="m207.23 360.97v18.53h-15v-18.53c0-4.14 3.35-7.5 7.5-7.5 4.14 0 7.5 3.36 7.5 7.5z" data-original="#546E7A"/><path d="m263.5 360.97v18.53h-15v-18.53c0-4.14 3.36-7.5 7.5-7.5s7.5 3.36 7.5 7.5z" data-original="#546E7A"/><path d="m319.77 360.97v18.53h-15v-18.53c0-4.14 3.36-7.5 7.5-7.5 4.15 0 7.5 3.36 7.5 7.5z" data-original="#546E7A"/><path d="m376.05 360.97v18.53h-15v-18.53c0-4.14 3.35-7.5 7.5-7.5 4.14 0 7.5 3.36 7.5 7.5z" data-original="#546E7A"/><path d="m432.32 360.97v18.53h-15v-18.53c0-4.14 3.36-7.5 7.5-7.5s7.5 3.36 7.5 7.5z" data-original="#546E7A"/><path d="m488.59 360.97v18.53h-15v-18.53c0-4.14 3.36-7.5 7.5-7.5 4.15 0 7.5 3.36 7.5 7.5z" data-original="#546E7A"/></g></g></g> </svg>
