<?xml version="1.0"?>
<svg xmlns="http://www.w3.org/2000/svg" xmlns:xlink="http://www.w3.org/1999/xlink" version="1.1" id="Capa_1" x="0px" y="0px" viewBox="0 0 508 508" style="enable-background:new 0 0 508 508;" xml:space="preserve" width="512px" height="512px" class=""><g><g>
	
		<ellipse transform="matrix(0.1962 0.9806 -0.9806 0.1962 276.6066 2.8371)" style="fill:#F8B64C;" cx="136.573" cy="170.135" rx="28.101" ry="11.7" data-original="#F8B64C"/>
	
		<ellipse transform="matrix(0.1962 -0.9806 0.9806 0.1962 86.3862 445.6279)" style="fill:#F8B64C;" cx="315.004" cy="170.123" rx="28.101" ry="11.7" data-original="#F8B64C"/>
</g><path style="fill:#CDD6E0;" d="M451.7,484.013H0c0,0,7.4-93.5,38-134.7c0,0,1.2-0.5,3.5-1.3c17.1-6.4,90.5-34.3,125.1-60.7l3.3-16.6  c0,0,14.1,28.9,45.5,33.3c3.2,0.5,6.7,0.7,10.4,0.5c3.7,0.2,7.2,0,10.4-0.5c31.6-4.3,45.5-33.3,45.5-33.3l3.3,16.6  c34.6,26.4,108.1,54.4,125.1,60.7c2.3,0.8,3.7,1.3,3.7,1.3C444.3,390.513,451.7,484.013,451.7,484.013z" data-original="#CDD6E0" class=""/><path style="fill:#ACB3BA;" d="M171.8,338.613l14.4,25.5l20.7-32.4l-5-5.8l-16.3,24.4l-19-35.3  C167.5,321.713,169.1,329.613,171.8,338.613z" data-original="#ACB3BA" class=""/><path style="fill:#F8B64C;" d="M281.7,270.713c0,0-14.1,28.9-45.4,33.3c-3.2,0.4-6.8,0.6-10.4,0.4c-3.7,0.2-7.2,0-10.4-0.4  c-31.4-4.4-45.4-33.3-45.4-33.3s0.5-5.9,0.6-12c0.2-3.1,0.1-6.2-0.1-8.7c26.1,32.4,55.3,37.3,55.3,37.3s29.3-4.8,55.3-37.3  c-0.2,2.6-0.3,5.7-0.1,8.8C281.2,264.913,281.7,270.713,281.7,270.713z" data-original="#F8B64C"/><path style="fill:#F7AF48;" d="M281,258.813c-25.5,28.6-52.4,33.4-54.4,33.7l-0.9,0.1l-0.9-0.1c-1.9-0.3-28.9-5.2-54.4-33.8  c0.2-3.1,0.1-6.2-0.1-8.7c26.1,32.4,55.3,37.3,55.3,37.3s29.3-4.8,55.3-37.3C280.9,252.613,280.8,255.713,281,258.813z" data-original="#F7AF48"/><path style="fill:#FFD15C;" d="M319.3,145.013c-0.8,5.8-1.5,9.3-1.5,9.3c-16.3,120.8-92,133-92,133s-75.6-12.2-92-133  c0,0-0.8-3.4-1.5-9.1v-0.1c-3.8-30-7.5-122.9,93.5-121.1C326.6,22.213,323,114.913,319.3,145.013z" data-original="#FFD15C" class=""/><path style="fill:#40596B;" d="M225.8,453.213v30.8h152.4l35.3-133.3l-3.3-2.7c-17.1-6.4-90.5-34.3-125.1-60.7h-0.2  c0,0,8.7,30.1-19.1,86.3C265.8,373.613,241.7,420.113,225.8,453.213z" data-original="#40596B" class=""/><path style="fill:#ACB3BA;" d="M279.8,338.613l-14.4,25.5l-20.7-32.4l5-5.8l16.3,24.4l19.1-35.4  C284.2,321.713,282.5,329.613,279.8,338.613z" data-original="#ACB3BA" class=""/><path style="fill:#FFFFFF;" d="M235.7,342.113l11.2,68.4c-7,13.7-14.7,29.3-21.1,42.5c-6.4-13.2-14.1-28.8-21.1-42.5l11.2-68.4  l-14.1-16.2l13.4-21.9c0.2,0,0.2,0,0.2,0c3.2,0.5,6.7,0.7,10.4,0.5c3.7,0.2,7.2,0,10.4-0.5c0,0,0,0,0.2,0l13.4,21.9L235.7,342.113z" data-original="#FFFFFF"/><g>
	<path style="fill:#334A5E" d="M239.2,484.013H73.4l-35.3-133.4l3.4-2.7c17-6.3,90.5-34.2,125.1-60.7l0,0h0.2c0,0-8.8,30.2,19,86.4   c0,0,24.1,46.5,40,79.5C233,468.013,238.5,480.213,239.2,484.013z" data-original="#334A5E" class="active-path"/>
	<path style="fill:#334A5E" d="M319.3,145.013l-4,3.9c0,0-4.1-48.6-26.3-82.6c0,0-14,20.5-63.3,20.9c-49.1-0.4-63.1-20.9-63.1-20.9   c-22.2,34.1-26.4,82.6-26.4,82.6l-3.9-3.7v-0.1c-3.8-30-7.5-122.9,93.5-121.1C326.6,22.213,323,114.913,319.3,145.013z" data-original="#334A5E" class="active-path"/>
</g><path style="fill:#ACB3BA;" d="M490.1,383.013c0.3-3.1,0.3-16-0.1-19.2l17.8-12.4l-7.6-23.3l-21.8,0.5c-3.2-5.5-7-10.7-11.3-15.4  l7.1-20.6l-19.8-14.4l-17.3,13.2c-5.8-2.6-11.9-4.6-18.2-6l-6.3-20.8h-24.5l-6.3,20.8c-6.5,1.4-12.8,3.5-18.7,6.2l-17.4-13.1  l-19.7,14.5l7.3,20.6c-4.3,4.7-8,9.9-11.2,15.5l-21.8-0.4l-7.5,23.3l17.9,12.3c-0.3,3.1-0.3,16,0.1,19.2l-17.8,12.5l7.6,23.3  l21.8-0.5c3.2,5.5,7,10.7,11.3,15.4l-7.1,20.6l19.8,14.4l17.3-13.2c5.8,2.6,11.9,4.6,18.2,6l6.3,20.8h24.5l6.3-20.8  c6.5-1.4,12.8-3.5,18.7-6.2l17.4,13.1l19.7-14.5l-7.3-20.6c4.2-4.7,8-9.9,11.2-15.5l21.8,0.4l7.5-23.3L490.1,383.013z" data-original="#ACB3BA" class=""/><circle style="fill:#CDD6E0;" cx="400.4" cy="373.713" r="62.4" data-original="#CDD6E0" class=""/><circle style="fill:#FFFFFF;" cx="400.4" cy="373.713" r="37" data-original="#FFFFFF"/></g> </svg>
